<?xml version="1.0" encoding="iso-8859-1"?>
<!-- Uploaded to: SVG Repo, www.svgrepo.com, Transformed by: SVG Repo Mixer Tools -->
<!DOCTYPE svg PUBLIC "-//W3C//DTD SVG 1.1//EN" "http://www.w3.org/Graphics/SVG/1.1/DTD/svg11.dtd">
<svg fill="#000000" height="800px" width="800px" version="1.1" id="Capa_1" xmlns="http://www.w3.org/2000/svg" xmlns:xlink="http://www.w3.org/1999/xlink" 
	 viewBox="0 0 396.988 396.988" xml:space="preserve">
<g>
	<path d="M158.951,224.371c2.191,1.08,4.558,1.609,6.907,1.609c3.385,0,6.753-1.098,9.535-3.237l65.259-50.142
		c3.854-2.959,6.111-7.543,6.111-12.401c0-4.86-2.258-9.444-6.111-12.404l-65.259-50.14c-4.725-3.629-11.097-4.261-16.442-1.628
		c-5.343,2.633-8.727,8.072-8.727,14.03v100.282C150.225,216.298,153.608,221.738,158.951,224.371z"/>
	<path d="M369.494,0h-342c-11.856,0-21.5,9.645-21.5,21.499v353.99c0,11.855,9.644,21.499,21.5,21.499h342
		c11.855,0,21.5-9.645,21.5-21.499V21.499C390.994,9.645,381.35,0,369.494,0z M359.666,31.329v334.33H37.323V31.329H359.666z"/>
	<path d="M87.361,343.367h222.266c1.633,0,28.326-2.634,28.326-28.324c0-15.646-12.684-28.326-28.326-28.326H87.361
		c-15.643,0-28.326,12.681-28.326,28.326C59.035,330.688,71.719,343.367,87.361,343.367z M87.361,302.901h63.779
		c6.695,0,12.135,5.448,12.135,12.142c0,6.691-5.439,12.14-12.135,12.14H87.361c-6.695,0-12.143-5.448-12.143-12.14
		C75.219,308.35,80.666,302.901,87.361,302.901z"/>
</g>
</svg>